<svg xmlns="http://www.w3.org/2000/svg" xmlns:xlink="http://www.w3.org/1999/xlink" contentStyleType="text/css" data-diagram-type="DESCRIPTION" height="180px" preserveAspectRatio="none" style="width:679px;height:180px;background:#FFFFFF;" version="1.1" viewBox="0 0 679 180" width="679px" zoomAndPan="magnify"><rect width="100%" height="100%" fill="white"/><defs/><g><!--entity pc--><g class="entity" data-entity="pc" data-source-line="6" data-uid="ent0002" id="entity_pc"><polygon fill="#F1F1F1" points="16,16,26,6,227.8074,6,227.8074,153.3396,217.8074,163.3396,16,163.3396,16,16" style="stroke:#181818;stroke-width:0.5;"/><line style="stroke:#181818;stroke-width:0.5;" x1="217.8074" x2="227.8074" y1="16" y2="6"/><line style="stroke:#181818;stroke-width:0.5;" x1="16" x2="217.8074" y1="16" y2="16"/><line style="stroke:#181818;stroke-width:0.5;" x1="217.8074" x2="217.8074" y1="16" y2="163.3396"/><text fill="#000000" font-family="sans-serif" font-size="14" font-weight="bold" lengthAdjust="spacing" textLength="18.1929" x="31" y="40.9659">PC</text><line style="stroke:#181818;stroke-width:1;" x1="16" x2="217.8074" y1="45.0679" y2="45.0679"/><line style="stroke:#181818;stroke-width:1;" x1="217.8074" x2="227.8074" y1="45.0679" y2="35.0679"/><line style="stroke:#181818;stroke-width:1;" x1="16" x2="217.8074" y1="47.0679" y2="47.0679"/><line style="stroke:#181818;stroke-width:1;" x1="217.8074" x2="227.8074" y1="47.0679" y2="37.0679"/><text fill="#000000" font-family="sans-serif" font-size="14" lengthAdjust="spacing" textLength="37.6738" x="31" y="64.0339">Client</text><line style="stroke:#181818;stroke-width:1;" x1="16" x2="217.8074" y1="72.1358" y2="72.1358"/><line style="stroke:#181818;stroke-width:1;" x1="217.8074" x2="227.8074" y1="72.1358" y2="62.1358"/><text fill="#000000" font-family="sans-serif" font-size="14" lengthAdjust="spacing" textLength="107.8416" x="31" y="91.1018">Server discovery</text><line style="stroke:#181818;stroke-width:1;stroke-dasharray:1.0,2.0;" x1="16" x2="217.8074" y1="99.2038" y2="99.2038"/><line style="stroke:#181818;stroke-width:1;stroke-dasharray:1.0,2.0;" x1="217.8074" x2="227.8074" y1="99.2038" y2="89.2038"/><text fill="#000000" font-family="sans-serif" font-size="14" lengthAdjust="spacing" textLength="155.5534" x="31" y="118.1697">Measurement manager</text><line style="stroke:#181818;stroke-width:1;stroke-dasharray:1.0,2.0;" x1="16" x2="217.8074" y1="126.2717" y2="126.2717"/><line style="stroke:#181818;stroke-width:1;stroke-dasharray:1.0,2.0;" x1="217.8074" x2="227.8074" y1="126.2717" y2="116.2717"/><text fill="#000000" font-family="sans-serif" font-size="14" lengthAdjust="spacing" textLength="171.8074" x="31" y="145.2376">Measurement data logger</text></g><!--entity rpi--><g class="entity" data-entity="rpi" data-source-line="18" data-uid="ent0003" id="entity_rpi"><polygon fill="#F1F1F1" points="341.81,29.53,351.81,19.53,506.0315,19.53,506.0315,139.8017,496.0315,149.8017,341.81,149.8017,341.81,29.53" style="stroke:#181818;stroke-width:0.5;"/><line style="stroke:#181818;stroke-width:0.5;" x1="496.0315" x2="506.0315" y1="29.53" y2="19.53"/><line style="stroke:#181818;stroke-width:0.5;" x1="341.81" x2="496.0315" y1="29.53" y2="29.53"/><line style="stroke:#181818;stroke-width:0.5;" x1="496.0315" x2="496.0315" y1="29.53" y2="149.8017"/><text fill="#000000" font-family="sans-serif" font-size="14" font-weight="bold" lengthAdjust="spacing" textLength="87.6222" x="356.81" y="54.4959">Raspberry Pi</text><line style="stroke:#181818;stroke-width:1;" x1="341.81" x2="496.0315" y1="58.5979" y2="58.5979"/><line style="stroke:#181818;stroke-width:1;" x1="496.0315" x2="506.0315" y1="58.5979" y2="48.5979"/><line style="stroke:#181818;stroke-width:1;" x1="341.81" x2="496.0315" y1="60.5979" y2="60.5979"/><line style="stroke:#181818;stroke-width:1;" x1="496.0315" x2="506.0315" y1="60.5979" y2="50.5979"/><text fill="#000000" font-family="sans-serif" font-size="14" lengthAdjust="spacing" textLength="42.1538" x="356.81" y="77.5639">Server</text><line style="stroke:#181818;stroke-width:1;" x1="341.81" x2="496.0315" y1="85.6658" y2="85.6658"/><line style="stroke:#181818;stroke-width:1;" x1="496.0315" x2="506.0315" y1="85.6658" y2="75.6658"/><text fill="#000000" font-family="sans-serif" font-size="14" lengthAdjust="spacing" textLength="124.2215" x="356.81" y="104.6318">Actuator controller</text><line style="stroke:#181818;stroke-width:1;stroke-dasharray:1.0,2.0;" x1="341.81" x2="496.0315" y1="112.7338" y2="112.7338"/><line style="stroke:#181818;stroke-width:1;stroke-dasharray:1.0,2.0;" x1="496.0315" x2="506.0315" y1="112.7338" y2="102.7338"/><text fill="#000000" font-family="sans-serif" font-size="14" lengthAdjust="spacing" textLength="112.8816" x="356.81" y="131.6997">Sensor controller</text></g><!--entity actuator--><g class="entity" data-entity="actuator" data-source-line="27" data-uid="ent0004" id="entity_actuator"><polygon fill="#F1F1F1" points="567.03,28.14,577.03,18.14,662.4698,18.14,662.4698,57.2079,652.4698,67.2079,567.03,67.2079,567.03,28.14" style="stroke:#181818;stroke-width:0.5;"/><line style="stroke:#181818;stroke-width:0.5;" x1="652.4698" x2="662.4698" y1="28.14" y2="18.14"/><line style="stroke:#181818;stroke-width:0.5;" x1="567.03" x2="652.4698" y1="28.14" y2="28.14"/><line style="stroke:#181818;stroke-width:0.5;" x1="652.4698" x2="652.4698" y1="28.14" y2="67.2079"/><text fill="#000000" font-family="sans-serif" font-size="14" lengthAdjust="spacing" textLength="55.4398" x="582.03" y="53.1059">actuator</text></g><!--entity sensor--><g class="entity" data-entity="sensor" data-source-line="28" data-uid="ent0005" id="entity_sensor"><polygon fill="#F1F1F1" points="572.64,112.14,582.64,102.14,656.8518,102.14,656.8518,141.2079,646.8518,151.2079,572.64,151.2079,572.64,112.14" style="stroke:#181818;stroke-width:0.5;"/><line style="stroke:#181818;stroke-width:0.5;" x1="646.8518" x2="656.8518" y1="112.14" y2="102.14"/><line style="stroke:#181818;stroke-width:0.5;" x1="572.64" x2="646.8518" y1="112.14" y2="112.14"/><line style="stroke:#181818;stroke-width:0.5;" x1="646.8518" x2="646.8518" y1="112.14" y2="151.2079"/><text fill="#000000" font-family="sans-serif" font-size="14" lengthAdjust="spacing" textLength="44.2118" x="587.64" y="137.1059">sensor</text></g><!--link pc to rpi--><g class="link" data-entity-1="pc" data-entity-2="rpi" data-source-line="30" data-uid="lnk6" id="link_pc_rpi"><path d="M228.26,84.67 C265.4,84.67 306.56,84.67 341.44,84.67" fill="none" id="pc-rpi" style="stroke:#181818;stroke-width:2;"/><text fill="#000000" font-family="sans-serif" font-size="13" lengthAdjust="spacing" textLength="52.7151" x="258.81" y="80.567">Ethernet</text></g><!--link rpi to actuator--><g class="link" data-entity-1="rpi" data-entity-2="actuator" data-source-line="31" data-uid="lnk7" id="link_rpi_actuator"><path d="M506.37,66.55 C526.93,61.98 542.4728,58.5212 560.7028,54.4712" fill="none" id="rpi-to-actuator" style="stroke:#181818;stroke-width:1;"/><polygon fill="#181818" points="566.56,53.17,556.9067,51.2171,561.679,54.2544,558.6417,59.0267,566.56,53.17" style="stroke:#181818;stroke-width:1;"/></g><!--reverse link rpi to sensor--><g class="link" data-entity-1="rpi" data-entity-2="sensor" data-source-line="32" data-uid="lnk8" id="link_rpi_sensor"><path d="M512.227,104.0921 C534.987,109.1521 552.91,113.14 572.29,117.45" fill="none" id="rpi-backto-sensor" style="stroke:#181818;stroke-width:1;"/><polygon fill="#181818" points="506.37,102.79,514.2874,108.6479,511.2508,103.8751,516.0236,100.8385,506.37,102.79" style="stroke:#181818;stroke-width:1;"/></g><!--SRC=[ROz1QiD034NNerFe0jC3b3XGJ9U5q2nB5_9OjOUCHqOZj-Js7ISseT2_alJrUVnoYNacfGax2fT1PSbzAqaKVyPe393uoz04DGwZOH-LWqN905bwnZdW1xX3Tporu9egS6sAd0sShm9tPlrchRaIf0vNS4zLuDwOog8yrLUSADF0-f_Lan4c6LRxSsFg73VeEvMvOzKhdkAElmDt_4kmXQos2P9D9QK7viov_3Ls06sX-rPkVm2rQjFSuC_uQYDhPeDrzVxuYAo7W_TxwXS0]--></g></svg>
